<svg xmlns="http://www.w3.org/2000/svg" width="24" height="24" viewBox="0 0 24 24">
  <g id="close-circle-outline" transform="translate(-503 -1884)">
    <rect id="Rectangle_2241" data-name="Rectangle 2241" width="24" height="24" transform="translate(503 1884)" fill="none"/>
    <path id="close-circle-outline_4_" data-name="close-circle-outline (4)" d="M12,20a8,8,0,1,1,8-8,8.011,8.011,0,0,1-8,8M12,2A10,10,0,1,0,22,12,9.991,9.991,0,0,0,12,2m2.59,6L12,10.59,9.41,8,8,9.41,10.59,12,8,14.59,9.41,16,12,13.41,14.59,16,16,14.59,13.41,12,16,9.41Z" transform="translate(503 1884)"/>
  </g>
</svg>
