<svg xmlns="http://www.w3.org/2000/svg" width="58" height="58" viewBox="0 0 58 58">
  <g id="_.dwf" data-name=".dwf" transform="translate(-424.78 -261.184)">
    <path id="Path_1013" data-name="Path 1013" d="M476.98,261.184h-46.4a5.8,5.8,0,0,0-5.8,5.8v46.4a5.8,5.8,0,0,0,5.8,5.8h46.4a5.8,5.8,0,0,0,5.8-5.8v-46.4A5.8,5.8,0,0,0,476.98,261.184Z" fill="#4986e7"/>
    <g id="Group_4322" data-name="Group 4322">
      <path id="Path_1014" data-name="Path 1014" d="M431.587,282.684h5.535a10.8,10.8,0,0,1,2.855.287,5.012,5.012,0,0,1,2.261,1.381,6.562,6.562,0,0,1,1.433,2.43,11.079,11.079,0,0,1,.491,3.545,9.86,9.86,0,0,1-.461,3.193,6.616,6.616,0,0,1-1.606,2.65,5.346,5.346,0,0,1-2.128,1.2,9.183,9.183,0,0,1-2.681.317h-5.7Zm3.028,2.538v9.935h2.262a8.285,8.285,0,0,0,1.831-.143,2.794,2.794,0,0,0,1.223-.625,3.178,3.178,0,0,0,.793-1.448,9.764,9.764,0,0,0,.307-2.747,8.949,8.949,0,0,0-.307-2.67,3.429,3.429,0,0,0-.86-1.453,2.88,2.88,0,0,0-1.4-.706,13.707,13.707,0,0,0-2.487-.143Z" fill="#fff"/>
      <path id="Path_1015" data-name="Path 1015" d="M448.439,297.684l-3.581-15h3.1l2.262,10.3,2.742-10.3h3.6l2.63,10.478,2.3-10.478h3.049l-3.642,15h-3.213L454.7,286.47l-2.977,11.214Z" fill="#fff"/>
      <path id="Path_1016" data-name="Path 1016" d="M465.691,297.684v-15h10.283v2.538h-7.255v3.55h6.262v2.538h-6.262v6.374Z" fill="#fff"/>
    </g>
  </g>
</svg>
