<svg xmlns="http://www.w3.org/2000/svg" width="58" height="58" viewBox="0 0 58 58">
  <g id="_.dwg" data-name=".dwg" transform="translate(-507.432 -262.373)">
    <path id="Path_1017" data-name="Path 1017" d="M559.632,262.373h-46.4a5.8,5.8,0,0,0-5.8,5.8v46.4a5.8,5.8,0,0,0,5.8,5.8h46.4a5.8,5.8,0,0,0,5.8-5.8v-46.4A5.8,5.8,0,0,0,559.632,262.373Z" fill="#4986e7"/>
    <g id="Group_4324" data-name="Group 4324">
      <path id="Path_1018" data-name="Path 1018" d="M513.422,284.12h5.353a10.478,10.478,0,0,1,2.76.277,4.863,4.863,0,0,1,2.187,1.336,6.341,6.341,0,0,1,1.386,2.35,10.725,10.725,0,0,1,.475,3.429,9.526,9.526,0,0,1-.446,3.087,6.4,6.4,0,0,1-1.553,2.562,5.146,5.146,0,0,1-2.058,1.158,8.846,8.846,0,0,1-2.592.307h-5.512Zm2.929,2.454v9.608h2.187a7.94,7.94,0,0,0,1.771-.139,2.714,2.714,0,0,0,1.182-.6,3.071,3.071,0,0,0,.767-1.4,9.446,9.446,0,0,0,.3-2.656,8.67,8.67,0,0,0-.3-2.583,3.327,3.327,0,0,0-.831-1.4,2.782,2.782,0,0,0-1.356-.682,13.291,13.291,0,0,0-2.4-.139Z" fill="#fff"/>
      <path id="Path_1019" data-name="Path 1019" d="M529.719,298.626l-3.464-14.506h3l2.186,9.964,2.652-9.964h3.483l2.543,10.132,2.226-10.132h2.948l-3.522,14.506h-3.107l-2.889-10.845L532.9,298.626Z" fill="#fff"/>
      <path id="Path_1020" data-name="Path 1020" d="M553.13,293.293v-2.444h6.312v5.778a7.939,7.939,0,0,1-2.666,1.568,9.709,9.709,0,0,1-3.538.678,7.932,7.932,0,0,1-3.967-.955,6.067,6.067,0,0,1-2.543-2.731,8.811,8.811,0,0,1-.851-3.863,8.35,8.35,0,0,1,.949-4.027,6.409,6.409,0,0,1,2.781-2.7,7.51,7.51,0,0,1,3.473-.722,6.931,6.931,0,0,1,4.22,1.133,5.116,5.116,0,0,1,1.954,3.132l-2.909.544a3.067,3.067,0,0,0-1.153-1.687,3.486,3.486,0,0,0-2.112-.619,3.968,3.968,0,0,0-3.052,1.217A5.126,5.126,0,0,0,548.9,291.2a5.677,5.677,0,0,0,1.148,3.874,3.831,3.831,0,0,0,3.007,1.291,5.062,5.062,0,0,0,1.846-.361,6.319,6.319,0,0,0,1.587-.876v-1.84Z" fill="#fff"/>
    </g>
  </g>
</svg>
