<svg xmlns="http://www.w3.org/2000/svg" width="58" height="58" viewBox="0 0 58 58">
  <g id="_.pdf" data-name=".pdf" transform="translate(-209 -687)">
    <g id="Group_3387" data-name="Group 3387" transform="translate(170.164 533.616)">
      <path id="Path_999" data-name="Path 999" d="M56.557,174.328a11.607,11.607,0,0,0-3.544-.644h-7.09V192.05h3.868v-6.444h3.222a8.2,8.2,0,0,0,5.156-1.611,6.129,6.129,0,0,0,1.611-4.189,5.446,5.446,0,0,0-.967-3.222A3.894,3.894,0,0,0,56.557,174.328Zm-2.032,7.154a4.188,4.188,0,0,1-2.03.58h-2.9v-5.22h3.191a1.754,1.754,0,0,1,1.74.87,4.2,4.2,0,0,1,.58,2.03C55.1,180.322,55.1,181.192,54.525,181.482Z" fill="#fff"/>
      <path id="Path_1000" data-name="Path 1000" d="M72.669,174.329a8.923,8.923,0,0,0-4.189-.967h-5.8v18.366h5.8a8.923,8.923,0,0,0,4.189-.967,9.138,9.138,0,0,0,2.9-3.222,10.286,10.286,0,0,0,.967-4.511v-.966a10.289,10.289,0,0,0-.967-4.511A5.768,5.768,0,0,0,72.669,174.329Zm.008,8.966c0,1.74-.29,2.9-1.16,3.77a3.96,3.96,0,0,1-3.19,1.16h-1.74v-11.02h1.74a4.661,4.661,0,0,1,3.19,1.45c.87.87,1.16,2.03,1.16,3.77Z" fill="#fff"/>
      <path id="Path_1001" data-name="Path 1001" d="M79.113,191.728H82.98v-7.411h7.411v-2.9H82.98v-4.833h8.056v-3.222H79.113Z" fill="#fff"/>
      <path id="Path_1002" data-name="Path 1002" d="M52.785,176.842H49.594v5.22h2.9a4.188,4.188,0,0,0,2.03-.58c.58-.29.58-1.16.58-1.74a4.2,4.2,0,0,0-.58-2.03A1.754,1.754,0,0,0,52.785,176.842Z" fill="#f23842"/>
      <path id="Path_1003" data-name="Path 1003" d="M68.327,177.205h-1.74v11.02h1.74a3.96,3.96,0,0,0,3.19-1.16c.87-.87,1.16-2.03,1.16-3.77v-.87c0-1.74-.29-2.9-1.16-3.77A4.661,4.661,0,0,0,68.327,177.205Z" fill="#f23842"/>
      <path id="Path_1004" data-name="Path 1004" d="M91.036,153.384h-46.4a5.8,5.8,0,0,0-5.8,5.8v46.4a5.8,5.8,0,0,0,5.8,5.8h46.4a5.8,5.8,0,0,0,5.8-5.8v-46.4A5.8,5.8,0,0,0,91.036,153.384ZM58.169,183.995a8.2,8.2,0,0,1-5.156,1.611H49.791v6.444H45.923V173.684h7.09a11.607,11.607,0,0,1,3.544.644,3.894,3.894,0,0,1,2.256,2.256,5.446,5.446,0,0,1,.967,3.222A6.129,6.129,0,0,1,58.169,183.995Zm18.367-.967a10.286,10.286,0,0,1-.967,4.511,9.138,9.138,0,0,1-2.9,3.222,8.923,8.923,0,0,1-4.189.967h-5.8V173.362h5.8a8.923,8.923,0,0,1,4.189.967,5.768,5.768,0,0,1,2.9,3.222,10.289,10.289,0,0,1,.967,4.511Zm13.855-1.611v2.9H82.98v7.411H79.113V173.362H91.036v3.222H82.98v4.833Z" fill="#ea4335"/>
    </g>
  </g>
</svg>
