<svg xmlns="http://www.w3.org/2000/svg" width="58" height="58" viewBox="0 0 58 58">
  <g id="_.docx" data-name=".docx" transform="translate(-126.949 -153.384)">
    <path id="Path_993" data-name="Path 993" d="M179.149,211.384h-46.4a5.8,5.8,0,0,1-5.8-5.8v-46.4a5.8,5.8,0,0,1,5.8-5.8h46.4a5.8,5.8,0,0,1,5.8,5.8v46.4A5.8,5.8,0,0,1,179.149,211.384Z" fill="#4b87e4"/>
    <path id="Path_994" data-name="Path 994" d="M168.718,167.884l-4.483,21.066-4.968-21.066h-6.342L147.8,189.6l-4.619-21.718h-5.673l6.8,29h6.821l4.967-22.3,4.971,22.3h6.528l6.8-29Z" fill="#fff"/>
  </g>
</svg>
