<svg xmlns="http://www.w3.org/2000/svg" width="58" height="58" viewBox="0 0 58 58">
  <g id="_.mp3" data-name=".mp3" transform="translate(-483.67 -153.384)">
    <path id="Path_1005" data-name="Path 1005" d="M512.67,163.051a19.334,19.334,0,0,0-19.334,19.333v15.467a3.879,3.879,0,0,0,3.867,3.867h9.022V188.829h-6.444v-6.445a12.888,12.888,0,1,1,25.777,0v6.445h-6.444v12.889h9.022A3.867,3.867,0,0,0,532,197.851V182.384A19.333,19.333,0,0,0,512.67,163.051Z" fill="#fff"/>
    <path id="Path_1006" data-name="Path 1006" d="M535.87,153.384h-46.4a5.8,5.8,0,0,0-5.8,5.8v46.4a5.8,5.8,0,0,0,5.8,5.8h46.4a5.8,5.8,0,0,0,5.8-5.8v-46.4A5.8,5.8,0,0,0,535.87,153.384ZM532,186.251v11.6a3.867,3.867,0,0,1-3.867,3.867h-9.022V188.829h6.444v-6.445a12.888,12.888,0,1,0-25.777,0v6.445h6.444v12.889H497.2a3.879,3.879,0,0,1-3.867-3.867V182.384a19.333,19.333,0,0,1,38.667,0Z" fill="#d93025"/>
  </g>
</svg>
