<svg xmlns="http://www.w3.org/2000/svg" width="58" height="58" viewBox="0 0 58 58">
  <g id="_.mpp" data-name=".mpp" transform="translate(-302.088 -153.724)">
    <rect id="Rectangle_2145" data-name="Rectangle 2145" width="58" height="58" transform="translate(302.088 153.724)" fill="none"/>
    <g id="Group_4320" data-name="Group 4320">
      <path id="Path_1009" data-name="Path 1009" d="M358.477,160.168H332.7v45.111h25.777a1.522,1.522,0,0,0,1.611-1.611V161.779A1.522,1.522,0,0,0,358.477,160.168Z" fill="#81c784"/>
      <path id="Path_1010" data-name="Path 1010" d="M355.255,181.113l-6.444,6.444-6.445-6.444H347.2v-9.667H335.922v-3.222h14.5v12.889Zm-16.111,4.833-6.444,6.445,6.444,6.444,6.444-6.444Z" fill="#fff"/>
      <path id="Path_1011" data-name="Path 1011" d="M335.922,211.724l-33.834-6.445V160.168l33.834-6.444Z" fill="#43a047"/>
      <path id="Path_1012" data-name="Path 1012" d="M319.488,171.446h-7.733V194h4.833v-7.734h2.578a9.145,9.145,0,0,0,6.445-2.094,6.977,6.977,0,0,0,2.416-5.478C327.866,173.863,325.127,171.446,319.488,171.446Zm-.8,10.956h-2.1v-7.089h2.1c2.578,0,4.028,1.128,4.028,3.544S321.261,182.4,318.683,182.4Z" fill="#fff"/>
    </g>
  </g>
</svg>
