<svg xmlns="http://www.w3.org/2000/svg" width="58" height="58" viewBox="0 0 58 58">
  <g id="_.txt" data-name=".txt" transform="translate(-191.726 -282.684)">
    <path id="Path_1025" data-name="Path 1025" d="M243.926,282.684h-46.4a5.8,5.8,0,0,0-5.8,5.8v46.4a5.8,5.8,0,0,0,5.8,5.8h46.4a5.8,5.8,0,0,0,5.8-5.8v-46.4A5.8,5.8,0,0,0,243.926,282.684Z" fill="#1a73e8"/>
    <g id="Group_4327" data-name="Group 4327">
      <path id="Path_1026" data-name="Path 1026" d="M203.715,320.859V305.991H198.4v-3.027h14.221v3.027h-5.3v14.868Z" fill="#fff"/>
      <path id="Path_1027" data-name="Path 1027" d="M212.639,320.859l6.115-9.338-5.542-8.557h4.224l3.589,5.749,3.516-5.749h4.187l-5.567,8.691,6.116,9.2h-4.358l-3.967-6.189-3.98,6.189Z" fill="#fff"/>
      <path id="Path_1028" data-name="Path 1028" d="M234.661,320.859V305.991h-5.31v-3.027h14.221v3.027h-5.3v14.868Z" fill="#fff"/>
    </g>
  </g>
</svg>
