<svg xmlns="http://www.w3.org/2000/svg" width="58" height="58" viewBox="0 0 58 58">
  <g id="_.xps" data-name=".xps" transform="translate(-307.078 -269.873)">
    <path id="Path_1021" data-name="Path 1021" d="M359.278,269.873h-46.4a5.8,5.8,0,0,0-5.8,5.8v46.4a5.8,5.8,0,0,0,5.8,5.8h46.4a5.8,5.8,0,0,0,5.8-5.8v-46.4A5.8,5.8,0,0,0,359.278,269.873Z" fill="#1a73e8"/>
    <g id="Group_4325" data-name="Group 4325">
      <path id="Path_1022" data-name="Path 1022" d="M311.815,308.048l6.116-9.338-5.542-8.557h4.224L320.2,295.9l3.515-5.749H327.9l-5.566,8.691,6.116,9.2H324.1l-3.968-6.189-3.979,6.189Z" fill="#fff"/>
      <path id="Path_1023" data-name="Path 1023" d="M329.809,308.048V290.153h5.8a21.116,21.116,0,0,1,4.3.268,4.7,4.7,0,0,1,2.576,1.752,5.559,5.559,0,0,1,1.038,3.485,5.833,5.833,0,0,1-.6,2.771,4.89,4.89,0,0,1-1.52,1.764,5.228,5.228,0,0,1-1.873.849,20.719,20.719,0,0,1-3.748.256h-2.356v6.75Zm3.613-14.868v5.078H335.4a9.353,9.353,0,0,0,2.856-.28,2.375,2.375,0,0,0,1.13-.879,2.411,2.411,0,0,0,.408-1.392,2.312,2.312,0,0,0-.573-1.611,2.5,2.5,0,0,0-1.453-.794,17.431,17.431,0,0,0-2.6-.122Z" fill="#fff"/>
      <path id="Path_1024" data-name="Path 1024" d="M345.068,302.226l3.516-.342a4.284,4.284,0,0,0,1.288,2.6,3.891,3.891,0,0,0,2.618.83,4.027,4.027,0,0,0,2.631-.738,2.2,2.2,0,0,0,.885-1.728,1.629,1.629,0,0,0-.372-1.08,2.975,2.975,0,0,0-1.3-.775q-.635-.221-2.893-.782a9.8,9.8,0,0,1-4.077-1.77,4.657,4.657,0,0,1-1.648-3.6,4.608,4.608,0,0,1,.775-2.557,4.858,4.858,0,0,1,2.235-1.813,8.95,8.95,0,0,1,3.521-.622,7.552,7.552,0,0,1,5.072,1.477,5.214,5.214,0,0,1,1.788,3.943l-3.613.158a3.066,3.066,0,0,0-1-1.983,3.639,3.639,0,0,0-2.289-.6,4.128,4.128,0,0,0-2.465.647,1.3,1.3,0,0,0-.574,1.111,1.374,1.374,0,0,0,.537,1.087,9.518,9.518,0,0,0,3.32,1.2,17.514,17.514,0,0,1,3.9,1.288,5.016,5.016,0,0,1,1.977,1.819,5.635,5.635,0,0,1-.14,5.731,5.123,5.123,0,0,1-2.417,1.995,10.125,10.125,0,0,1-3.894.654,7.752,7.752,0,0,1-5.213-1.569A6.821,6.821,0,0,1,345.068,302.226Z" fill="#fff"/>
    </g>
  </g>
</svg>
